<?xml version="1.0" standalone="no"?>
<!DOCTYPE svg PUBLIC "-//W3C//DTD SVG 20010904//EN"
 "http://www.w3.org/TR/2001/REC-SVG-20010904/DTD/svg10.dtd">
<svg version="1.0" xmlns="http://www.w3.org/2000/svg"
 width="225.000000pt" height="225.000000pt" viewBox="0 0 225.000000 225.000000"
 preserveAspectRatio="xMidYMid meet">

<g transform="translate(0.000000,225.000000) scale(0.100000,-0.100000)"
fill="#000000" stroke="none">
<path d="M590 1927 c-170 -51 -295 -171 -352 -335 -20 -58 -23 -86 -23 -207 0
-132 2 -145 33 -235 71 -206 198 -381 417 -579 102 -92 319 -247 412 -295 32
-16 35 -16 85 10 235 119 541 374 687 573 72 97 141 237 165 331 9 36 19 110
21 165 3 74 2 91 -5 65 -5 -19 -7 -43 -4 -53 3 -9 -2 -24 -10 -33 -9 -8 -16
-23 -16 -31 0 -9 -11 -31 -25 -49 -14 -18 -25 -37 -25 -43 0 -6 -7 -11 -15
-11 -8 0 -15 -6 -15 -14 0 -8 -9 -18 -20 -21 -11 -3 -20 -11 -20 -16 0 -5 -7
-12 -16 -16 -9 -3 -30 -19 -47 -34 -17 -16 -37 -29 -44 -29 -7 0 -13 -4 -13
-10 0 -5 -11 -10 -25 -10 -14 0 -25 -4 -25 -8 0 -9 -40 -24 -107 -42 -24 -6
-43 -15 -43 -20 0 -6 -14 -10 -30 -10 -17 0 -41 -6 -53 -14 -12 -8 -38 -17
-57 -21 -19 -4 -53 -16 -74 -26 -22 -11 -45 -19 -52 -19 -7 0 -14 -4 -16 -10
-4 -11 -149 -22 -164 -12 -6 4 -17 18 -23 30 -7 13 -28 30 -47 38 -19 8 -34
19 -34 24 0 6 -6 10 -12 10 -7 0 -24 14 -38 32 -29 37 -61 68 -70 68 -3 0 -19
20 -34 45 -16 25 -32 45 -36 45 -13 0 -140 132 -140 146 0 19 -22 64 -32 64
-4 0 -8 -7 -8 -16 0 -14 -3 -14 -15 -4 -8 7 -15 18 -15 25 0 17 -33 75 -42 75
-5 0 -8 41 -8 90 0 53 -4 90 -10 90 -5 0 -10 9 -10 19 0 11 5 23 10 26 6 3 10
14 10 23 0 9 14 25 32 35 25 15 29 20 17 28 -11 7 -9 9 9 9 13 0 20 4 17 10
-3 6 1 13 9 16 9 3 13 10 10 15 -3 5 3 12 13 15 10 3 26 9 35 14 11 6 18 5 21
-3 3 -9 20 -8 70 4 37 9 71 12 79 8 11 -7 11 -9 0 -9 -7 0 -10 -4 -7 -10 3 -5
25 -7 48 -4 39 6 43 4 54 -22 7 -16 10 -19 7 -7 -3 12 0 24 5 28 6 3 8 0 5 -8
-3 -8 0 -18 5 -22 6 -3 9 -10 6 -14 -2 -5 9 -7 25 -5 17 2 29 0 29 -4 -1 -4
-1 -14 0 -22 1 -13 2 -13 11 0 7 11 0 25 -28 53 -61 63 -87 79 -114 68 -18 -7
-25 -6 -25 4 0 7 9 11 21 8 42 -9 -15 27 -69 43 -88 27 -171 27 -255 1z m277
-53 c-3 -3 -12 -4 -19 -1 -8 3 -5 6 6 6 11 1 17 -2 13 -5z m163 -86 c0 -6 -6
-5 -15 2 -8 7 -15 14 -15 16 0 2 7 1 15 -2 8 -4 15 -11 15 -16z"/>
<path d="M1070 1746 c0 -2 8 -10 18 -17 15 -13 16 -12 3 4 -13 16 -21 21 -21
13z"/>
<path d="M1159 1713 c-13 -16 -12 -17 4 -4 9 7 17 15 17 17 0 8 -8 3 -21 -13z"/>
<path d="M2021 1514 c0 -11 3 -14 6 -6 3 7 2 16 -1 19 -3 4 -6 -2 -5 -13z"/>
</g>
</svg>
